Coordinates
version=1
nRows=5
nColumns=42
inDegrees=yes

Units are S.I. units (second, meters, Newtons, ...)
If the header above contains a line with 'inDegrees', this indicates whether rotational values are in degrees (yes) or radians (no).

endheader
time	pelvis_tilt	pelvis_list	pelvis_rotation	pelvis_tx	pelvis_ty	pelvis_tz	hip_flexion_r	hip_adduction_r	hip_rotation_r	knee_angle_r	knee_adduction_r	knee_angle_r_beta	ankle_angle_r	subtalar_angle_r	mtp_angle_r	hip_flexion_l	hip_adduction_l	hip_rotation_l	knee_angle_l	knee_adduction_l	knee_angle_l_beta	ankle_angle_l	subtalar_angle_l	mtp_angle_l	lumbar_extension	lumbar_bending	lumbar_rotation	arm_flex_r	arm_add_r	arm_rot_r	elbow_flex_r	pro_sup_r	wrist_flex_r	wrist_dev_r	arm_flex_l	arm_add_l	arm_rot_l	elbow_flex_l	pro_sup_l	wrist_flex_l	wrist_dev_l
      4.97000000	      4.18409662	      2.26491771	     -0.10965938	     -0.41156991	      0.85711788	      0.38689543	      0.09869914	     -5.68265694	    -18.44253856	     49.63395118	     -4.52786525	      0.86627587	     12.88069231	     25.57108591	     -7.50022106	     24.03637985	      6.27390257	    -13.90600824	     37.17979829	     -7.68162953	      0.64890990	     11.16088912	     14.63521373	     -7.50022106	    -27.79719063	     -3.33733824	     -1.30776320	     19.02194438	    -12.54737454	      5.08757423	     57.63277704	     90.00000001	      0.00000000	      0.00000000	     16.23959750	    -12.76854333	     28.31320653	     53.84457708	     90.00000001	      0.00000000	      0.00000000
      4.98000000	      4.16370261	      2.27860513	      0.00862668	     -0.40661248	      0.85751186	      0.38587008	      0.63882660	     -5.93971239	    -17.56752972	     51.11872068	     -4.06079382	      0.89218999	     10.98861859	     24.01444102	     -7.50021024	     23.71134919	      6.36596835	    -13.79811007	     37.26631057	     -7.60979302	      0.65041982	     11.54344614	     14.73023278	     -7.50021024	    -27.80605278	     -3.44865680	     -1.46805016	     18.63431293	    -12.60265002	      4.48126865	     57.66316064	     90.00000001	      0.00000000	      0.00000000	     16.40745705	    -12.95716142	     28.44009402	     53.83717892	     90.00000001	      0.00000000	      0.00000000
      4.99000000	      4.14180762	      2.29875778	      0.11260598	     -0.40171971	      0.85781538	      0.38486737	      1.27656393	     -6.20600593	    -16.74417514	     52.67493183	     -3.68693234	      0.91935099	      8.98070463	     23.00484247	     -7.50020408	     23.41741236	      6.45883306	    -13.77513397	     37.39510971	     -7.58527825	      0.65266779	     11.96675496	     14.88319366	     -7.50020408	    -27.81670305	     -3.56986758	     -1.65693096	     18.25208115	    -12.70490791	      4.07867493	     57.65636781	     90.00000001	      0.00000000	      0.00000000	     16.52628180	    -13.15696520	     28.50037090	     53.85095477	     90.00000001	      0.00000000	      0.00000000
      5.00000000	      4.22901359	      2.36447720	      0.21275782	     -0.39685414	      0.85808850	      0.38387416	      1.86061898	     -6.53582718	    -16.09745343	     54.32480183	     -3.48928546	      0.94814666	      7.80162142	     22.62572069	     -7.50020220	     23.00899069	      6.55676455	    -13.74798217	     37.55109154	     -7.48422232	      0.65539019	     12.29473826	     15.02305314	     -7.50020220	    -27.95507300	     -3.73131140	     -1.84641457	     17.92398752	    -12.89569752	      3.85596484	     57.57594879	     90.00000001	      0.00000000	      0.00000000	     16.69820988	    -13.33929631	     28.47966855	     53.86753517	     90.00000001	      0.00000000	      0.00000000
      5.01000000	      4.14051943	      2.28180363	      0.26973081	     -0.39221476	      0.85820203	      0.38301808	      2.71256794	     -6.57244341	    -14.16060183	     56.04990065	     -2.39635211	      0.97825531	      5.23228149	     19.01103701	     -7.50019142	     22.84820890	      6.49659929	    -13.86442849	     37.72899414	     -7.55705070	      0.65849517	     12.79153490	     15.47051052	     -7.50019142	    -27.91184857	     -3.74456962	     -1.90257205	     17.42022125	    -12.85235226	      2.83023432	     57.59193877	     90.00000001	      0.00000000	      0.00000000	     16.85979541	    -13.57035443	     28.77059092	     53.88868962	     90.00000001	      0.00000000	      0.00000000
